<?xml version="1.0" encoding="utf-8"?>
<!-- Generator: Adobe Illustrator 18.1.1, SVG Export Plug-In . SVG Version: 6.00 Build 0)  -->
<svg version="1.1" id="Layer_1" xmlns="http://www.w3.org/2000/svg" xmlns:xlink="http://www.w3.org/1999/xlink" x="0px" y="0px"
	 viewBox="404.4 545.3 33 50" enable-background="new 404.4 545.3 33 50" xml:space="preserve">
<g>
	<g>
		<circle fill="#835FA5" cx="420.9" cy="561.8" r="16.5"/>
		<polyline fill="#835FA5" points="407.2,570.6 420.9,595.3 434.7,570.6 		"/>
	</g>
	<g>
		<path fill="#FFFFFF" d="M425.3,564.5c0,2.7-2.2,3.3-4.9,3.3h-3.8v-11.5h3.3c3.3,0,4.9,0.6,4.9,2.7c0,1.6-1.1,2.2-2.2,2.2
			C424.2,561.8,425.3,562.3,425.3,564.5z M419.3,557.9v2.7h1.1c1.1,0,1.6-0.6,1.6-1.6s-0.6-1.1-2.2-1.1H419.3L419.3,557.9z
			 M422.6,564.5c0-1.1-0.6-1.6-2.2-1.6h-1.1v3.3h1.1C421.5,565.6,422.6,565.6,422.6,564.5z"/>
	</g>
</g>
</svg>
