<?xml version="1.0" encoding="utf-8"?>
<!-- Generator: Adobe Illustrator 18.1.1, SVG Export Plug-In . SVG Version: 6.00 Build 0)  -->
<svg version="1.1" id="Layer_1" xmlns="http://www.w3.org/2000/svg" xmlns:xlink="http://www.w3.org/1999/xlink" x="0px" y="0px"
	 viewBox="0 0 841.9 1190.6" enable-background="new 0 0 841.9 1190.6" xml:space="preserve">
<g>
	<g>
		<path fill="#9AC856" d="M409.5,461.3c7.7,0,15.3-3.8,19.1-11.5c7.7-3.8,11.5-11.5,11.5-19.1c0-7.7-3.8-15.3-11.5-23
			c-3.8-7.7-11.5-11.5-19.1-11.5c-11.5,0-15.3,3.8-23,11.5c-7.7,7.7-7.7,15.3-7.7,23c0,7.7,3.8,15.3,11.5,19.1
			S401.8,461.3,409.5,461.3z"/>
		<path fill="#9AC856" d="M516.6,568.5l-45.9-26.8l-38.3-61.2c-7.7-7.7-15.3-11.5-26.8-11.5c-7.7,0-11.5,3.8-23,11.5L329.1,534
			c-3.8,3.8-3.8,7.7-3.8,7.7l-7.7,65.1v3.8c0,3.8,3.8,7.7,3.8,11.5c0,0,3.8,3.8,7.7,3.8c3.8,0,7.7-3.8,11.5-3.8s7.7-7.7,7.7-15.3
			l3.8-53.6l23-23l-19.1,156.9l-30.6,72.7c0,3.8-3.8,3.8-3.8,11.5c0,7.7,3.8,11.5,3.8,15.3c3.8,3.8,11.5,3.8,15.3,3.8
			c7.7,0,15.3-3.8,19.1-11.5l34.4-80.4l0,0c0-3.8,0-3.8,3.8-3.8l0,0l3.8-38.3L440.1,779c3.8,11.5,11.5,15.3,23,11.5
			c3.8,0,11.5-3.8,15.3-3.8c3.8-3.8,3.8-11.5,3.8-15.3c0,0,0,0,0-3.8s0-3.8,0-3.8l-53.6-172.2l3.8-53.6l11.5,23
			c0,3.8,3.8,3.8,3.8,3.8l49.7,30.6c3.8-3.8,3.8-3.8,7.7-3.8c3.8,0,7.7-3.8,11.5-3.8c3.8-3.8,3.8-3.8,3.8-11.5
			C524.3,572.3,520.4,572.3,516.6,568.5z"/>
	</g>
</g>
</svg>
