<?xml version="1.0" encoding="utf-8"?>
<!-- Generator: Adobe Illustrator 18.1.1, SVG Export Plug-In . SVG Version: 6.00 Build 0)  -->
<svg version="1.1" id="Layer_1" xmlns="http://www.w3.org/2000/svg" xmlns:xlink="http://www.w3.org/1999/xlink" x="0px" y="0px"
	 viewBox="0 0 22 11" enable-background="new 0 0 22 11" xml:space="preserve">
<g>
	<g>
		<path fill="#835FA5" d="M10.7,2c0.2,0,0.4-0.1,0.5-0.3c0.2-0.1,0.3-0.3,0.3-0.5s-0.1-0.4-0.3-0.6c-0.1-0.2-0.3-0.3-0.5-0.3
			c-0.3,0-0.4,0.1-0.6,0.3S9.9,1,9.9,1.2s0.1,0.4,0.3,0.5S10.5,2,10.7,2z"/>
		<path fill="#835FA5" d="M13.5,4.8l-1.2-0.7l-1-1.6c-0.2-0.2-0.4-0.3-0.7-0.3c-0.2,0-0.3,0.1-0.6,0.3L8.6,3.9
			C8.5,4,8.5,4.1,8.5,4.1L8.3,5.8v0.1c0,0.1,0.1,0.2,0.1,0.3c0,0,0.1,0.1,0.2,0.1c0.1,0,0.2-0.1,0.3-0.1S9.1,6,9.1,5.8l0.1-1.4
			l0.6-0.6L9.3,7.9L8.5,9.8c0,0.1-0.1,0.1-0.1,0.3s0.1,0.3,0.1,0.4c0.1,0.1,0.3,0.1,0.4,0.1c0.2,0,0.4-0.1,0.5-0.3l0.9-2.1V8.2
			c0-0.1,0-0.1,0.1-0.1V8.1l0.1-1l1,3.2c0.1,0.3,0.3,0.4,0.6,0.3c0.1,0,0.3-0.1,0.4-0.1c0.1-0.1,0.1-0.3,0.1-0.4c0,0,0,0,0-0.1
			s0-0.1,0-0.1l-1.4-4.5l0.1-1.4l0.3,0.6c0,0.1,0.1,0.1,0.1,0.1l1.3,0.8c0.1-0.1,0.1-0.1,0.2-0.1c0.1,0,0.2-0.1,0.3-0.1
			c0.1-0.1,0.1-0.1,0.1-0.3C13.7,4.9,13.6,4.9,13.5,4.8z"/>
	</g>
</g>
</svg>
