<?xml version="1.0" encoding="utf-8"?>
<!-- Generator: Adobe Illustrator 18.1.1, SVG Export Plug-In . SVG Version: 6.00 Build 0)  -->
<svg version="1.1" id="Layer_1" xmlns="http://www.w3.org/2000/svg" xmlns:xlink="http://www.w3.org/1999/xlink" x="0px" y="0px"
	 viewBox="0 0 10 16" enable-background="new 0 0 10 16" xml:space="preserve">
<g>
	<g>
		<path d="M4.6,2.9c0.3,0,0.6-0.1,0.8-0.4C5.7,2.3,5.8,2,5.8,1.7c0-0.3-0.1-0.6-0.4-0.8C5.2,0.6,4.9,0.5,4.6,0.5
			C4.2,0.5,4,0.6,3.7,0.9S3.4,1.4,3.4,1.7s0.1,0.6,0.4,0.8S4.3,2.9,4.6,2.9z"/>
		<path d="M8.7,7L6.9,6L5.5,3.7c-0.3-0.3-0.6-0.5-1-0.5c-0.3,0-0.5,0.1-0.8,0.4L1.5,5.7C1.4,5.8,1.4,5.9,1.4,6L1.1,8.5v0.1
			c0,0.1,0.1,0.3,0.2,0.4C1.3,9,1.5,9.1,1.6,9.1C1.8,9.1,1.9,9,2,8.9c0.1-0.1,0.2-0.2,0.2-0.4l0.2-2.1l0.8-0.8l-0.7,5.9l-1.2,2.8
			c0,0.1-0.1,0.2-0.1,0.4c0,0.2,0.1,0.4,0.2,0.6c0.2,0.2,0.4,0.2,0.6,0.2c0.3,0,0.6-0.1,0.7-0.4l1.3-3c0,0,0-0.1,0-0.1
			c0-0.1,0-0.1,0.1-0.1c0,0,0-0.1,0-0.1l0.2-1.4L5.7,15c0.1,0.4,0.4,0.6,0.8,0.5c0.2,0,0.4-0.1,0.6-0.2s0.2-0.4,0.2-0.6
			c0,0,0,0,0-0.1s0-0.1,0-0.1L5.3,8l0.2-2.1l0.5,0.9c0,0.1,0.1,0.1,0.2,0.2l1.9,1.1C8.3,8,8.3,8,8.4,8c0.1,0,0.3-0.1,0.4-0.2
			c0.1-0.1,0.2-0.2,0.2-0.4C8.9,7.2,8.8,7.1,8.7,7z"/>
	</g>
</g>
</svg>
