<?xml version="1.0" encoding="utf-8"?>
<!-- Generator: Adobe Illustrator 18.1.1, SVG Export Plug-In . SVG Version: 6.00 Build 0)  -->
<svg version="1.1" id="Layer_1" xmlns="http://www.w3.org/2000/svg" xmlns:xlink="http://www.w3.org/1999/xlink" x="0px" y="0px"
	 viewBox="0 0 400 400" enable-background="new 0 0 400 400" xml:space="preserve">
<g>
	<g>
		<path fill="#4A5A94" d="M196.2,155c2.6,0,5.1-1.3,6.4-3.9c2.6-1.3,3.9-3.9,3.9-6.4c0-2.6-1.3-5.1-3.9-7.7
			c-1.3-2.6-3.9-3.9-6.4-3.9c-3.9,0-5.1,1.3-7.7,3.9c-2.6,2.6-2.6,5.1-2.6,7.7s1.3,5.1,3.9,6.4C192.3,152.4,193.6,155,196.2,155z"/>
		<path fill="#4A5A94" d="M232.1,191l-15.4-9l-12.9-20.6c-2.6-2.6-5.1-3.9-9-3.9c-2.6,0-3.9,1.3-7.7,3.9l-18,18
			c-1.3,1.3-1.3,2.6-1.3,2.6l-2.6,21.9v1.3c0,1.3,1.3,2.6,1.3,3.9c0,0,1.3,1.3,2.6,1.3c1.3,0,2.6-1.3,3.9-1.3s2.6-2.6,2.6-5.1
			l1.3-18l7.7-7.7l-6.4,52.7l-10.3,24.4c0,1.3-1.3,1.3-1.3,3.9s1.3,3.9,1.3,5.1c1.3,1.3,3.9,1.3,5.1,1.3c2.6,0,5.1-1.3,6.4-3.9
			l11.6-27l0,0c0-1.3,0-1.3,1.3-1.3l0,0l1.3-12.9l12.9,41.2c1.3,3.9,3.9,5.1,7.7,3.9c1.3,0,3.9-1.3,5.1-1.3c1.3-1.3,1.3-3.9,1.3-5.1
			c0,0,0,0,0-1.3c0-1.3,0-1.3,0-1.3l-18-57.9l1.3-18l3.9,7.7c0,1.3,1.3,1.3,1.3,1.3l16.7,10.3c1.3-1.3,1.3-1.3,2.6-1.3
			c1.3,0,2.6-1.3,3.9-1.3c1.3-1.3,1.3-1.3,1.3-3.9C234.7,192.3,233.4,192.3,232.1,191z"/>
	</g>
</g>
</svg>
