<?xml version="1.0" encoding="utf-8"?>
<!-- Generator: Adobe Illustrator 18.1.1, SVG Export Plug-In . SVG Version: 6.00 Build 0)  -->
<svg version="1.1" id="Layer_1" xmlns="http://www.w3.org/2000/svg" xmlns:xlink="http://www.w3.org/1999/xlink" x="0px" y="0px"
	 viewBox="0 0 300 300" enable-background="new 0 0 300 300" xml:space="preserve">
<g>
	<path fill="#FFFFFF" d="M134.6,125.5L172.5,71v-1.5H61.4V21.4h186.6V55l-48.6,70.5 M165.1,175.5L128.2,229v1.5H250v48.1H50v-31.3
		l49.9-71.8"/>
</g>
<g>
	<path fill="#FFFFFF" d="M116.1,158.3l-2.4,8.7h-7.9l10.3-33.7h10l10.5,33.7h-8.2l-2.6-8.7H116.1z M124.6,152.6l-2.1-7.2
		c-0.6-2-1.2-4.5-1.7-6.5h-0.1c-0.5,2-1,4.5-1.5,6.5l-2,7.2H124.6z"/>
	<path fill="#FFFFFF" d="M141,133.7c2.4-0.4,5.7-0.7,10.3-0.7c4.7,0,8.1,0.9,10.3,2.7c2.2,1.7,3.6,4.5,3.6,7.8c0,3.3-1.1,6.1-3.1,8
		c-2.6,2.5-6.5,3.6-11,3.6c-1,0-1.9,0-2.6-0.2V167H141V133.7z M148.5,149c0.6,0.1,1.5,0.2,2.6,0.2c4.1,0,6.6-2.1,6.6-5.5
		c0-3.1-2.2-5-6-5c-1.6,0-2.6,0.1-3.2,0.3V149z"/>
	<path fill="#FFFFFF" d="M170,133.7c2.4-0.4,5.7-0.7,10.3-0.7c4.7,0,8.1,0.9,10.3,2.7c2.2,1.7,3.6,4.5,3.6,7.8c0,3.3-1.1,6.1-3.1,8
		c-2.6,2.5-6.5,3.6-11,3.6c-1,0-1.9,0-2.6-0.2V167H170V133.7z M177.6,149c0.6,0.1,1.5,0.2,2.5,0.2c4.1,0,6.6-2.1,6.6-5.5
		c0-3.1-2.2-5-6-5c-1.6,0-2.6,0.1-3.2,0.3V149z"/>
</g>
</svg>
